<?xml version="1.0" encoding="UTF-8"?>
<svg id="Layer_1" data-name="Layer 1" xmlns="http://www.w3.org/2000/svg" viewBox="0 0 1457.63 648">
  <path d="M634.38,286.66l-24.66,24.12c-5.45,4.96-12.04,7.83-19.56,7.83l-79.67-.05.22-104.24.23-95.69,244.44-.05c4.39,0,9.17-1.74,12.21-4.74l24.49-24.16c5.21-5.14,11.83-9.13,19.44-9.13h77.2c14.61-.02,28.27,6,38.92,15.65,24.4,22.09,26.14,59.96,3.82,84.35,14.73,16.89,19.28,38.66,11.58,59.77-8.53,23.13-30.33,39.08-55.1,40.24h-238.07c-5.9,0-11.23,1.92-15.49,6.1ZM728.65,166.99c4.9-4.83,11.3-7.47,18.16-7.47h138.96c5.59-.01,10.41-1.8,14.04-6.14,4.71-5.65,5.95-13.83,2.45-20.51-2.68-5.12-7.78-9.39-13.92-9.39l-110.31-.04c-4.45,0-8.97,1.73-12.07,4.77l-24.91,24.42c-4.63,4.25-10.14,6.5-16.51,6.97h-171.5s0,36.94,0,36.94h137.33c6.17.13,10.97-2.67,15.16-6.79l23.12-22.78ZM640.41,268.65l23.72-23.3c4.86-4.77,11.69-7.84,18.76-7.84l202.86-.02c5.58,0,10.29-1.9,13.86-6.17,7-8.37,5.21-21.15-4-27.14-2.68-1.74-5.44-2.53-8.78-2.53h-172.35c-5.28,0-10.42,1.45-14.15,5.14l-22.96,22.73c-4.85,4.8-10.77,7.71-17.64,8.2h-106.93s-.09,37.97-.09,37.97h72.32c6.13-.06,11.05-2.79,15.38-7.04Z"/>
  <g>
    <path d="M195.4,436.65c6.2,0,12.04.37,17.49,1.12,5.46.75,10.23,2.24,14.31,4.48,4.08,2.24,7.3,5.49,9.65,9.74,2.35,4.25,3.53,9.82,3.53,16.72,0,3.79-.66,7.18-1.98,10.17-1.32,2.99-3.1,5.6-5.34,7.84-2.24,2.24-4.86,4.14-7.84,5.69-2.99,1.55-6.15,2.73-9.48,3.53,10.34,1.03,18.44,4.08,24.3,9.14,5.86,5.06,8.79,12.24,8.79,21.55,0,7.24-1.09,13.27-3.27,18.1-2.18,4.83-5.34,8.73-9.48,11.72-4.14,2.99-9.25,5.11-15.34,6.38-6.09,1.27-13.1,1.9-21.03,1.9h-76.87v-9.82c10.23,0,15.34-2.65,15.34-7.94v-91.67c0-5.29-5.11-7.94-15.34-7.94v-10.51l72.57-.17ZM164.55,451.64v40.16h27.92c6.89,0,12.07-1.66,15.51-5,3.45-3.33,5.17-8.62,5.17-15.86,0-6.55-1.78-11.4-5.34-14.56-3.56-3.16-8.68-4.74-15.34-4.74h-27.92ZM164.55,503.35v47.23h32.4c4.48,0,8.24-.6,11.29-1.82,3.04-1.21,5.52-2.91,7.41-5.1,1.9-2.19,3.25-4.82,4.05-7.87.8-3.05,1.21-6.49,1.21-10.29,0-7.96-2.01-13.64-6.03-17.04-4.02-3.4-10-5.1-17.93-5.1h-32.4Z"/>
    <path d="M372.66,475.43l-12.07.69c-1.38-17.35-8.73-26.03-22.06-26.03h-38.61v41.71h19.65c6.89,0,10.86-6.95,11.89-20.86h10.86l-2.59,53.78h-10.51c-1.15-14.25-4.77-21.37-10.86-21.37h-18.44v47.92h32.4c19.3,0,29.99-12.29,32.06-36.89l12.41,1.21-4.14,49.12h-114.45v-9.82c10.23,0,15.34-2.65,15.34-7.94v-92.19c0-5.3-5.11-7.94-15.34-7.94v-10.17h114.45v38.78Z"/>
    <path d="M456.25,446.82c-12.75,0-19.13,2.64-19.13,7.93v96.52h33.78c4.37,0,8.27-.6,11.72-1.81,3.45-1.21,6.43-3.22,8.96-6.03,2.53-2.81,4.57-6.58,6.12-11.29,1.55-4.71,2.61-10.63,3.19-17.75l11.38,1.21-4.14,49.12h-112.73v-9.82c10.23,0,15.34-2.65,15.34-7.94v-92.19c0-5.3-5.11-7.94-15.34-7.94v-10.17h60.84v10.17Z"/>
    <path d="M590.18,446.82c-12.75,0-19.13,2.64-19.13,7.93v96.52h33.78c4.37,0,8.27-.6,11.72-1.81,3.45-1.21,6.43-3.22,8.96-6.03,2.53-2.81,4.57-6.58,6.12-11.29,1.55-4.71,2.61-10.63,3.19-17.75l11.38,1.21-4.14,49.12h-112.73v-9.82c10.23,0,15.34-2.65,15.34-7.94v-92.19c0-5.3-5.11-7.94-15.34-7.94v-10.17h60.84v10.17Z"/>
    <path d="M768.23,481.46l-11.55,1.55c-.69-5.97-2.24-11.14-4.65-15.51-2.41-4.37-5.46-7.99-9.14-10.86-3.68-2.87-7.93-5-12.75-6.38-4.83-1.38-10.06-2.07-15.68-2.07-8.51,0-15.37,1.44-20.6,4.31-5.23,2.87-7.84,7.53-7.84,13.96,0,3.91,1.26,6.98,3.79,9.22,2.53,2.24,5.86,4.08,10,5.52,4.14,1.44,8.88,2.61,14.22,3.53,5.34.92,10.77,1.93,16.29,3.02,5.52,1.09,10.95,2.47,16.29,4.14,5.34,1.67,10.08,3.96,14.22,6.89,4.14,2.93,7.47,6.67,10,11.2,2.53,4.54,3.79,10.26,3.79,17.15s-1.18,12.87-3.53,17.93c-2.36,5.06-5.72,9.25-10.08,12.58-4.37,3.33-9.6,5.8-15.68,7.41-6.09,1.61-12.87,2.41-20.34,2.41s-14.16-.84-19.74-2.5c-5.57-1.66-10.54-3.93-14.91-6.81-2.07-1.38-4.02-2.07-5.86-2.07-.81,0-2.07.83-3.79,2.5-1.72,1.67-3.05,3.71-3.96,6.12h-11.55v-47.23l11.38-1.03c.46,5.52,1.9,10.51,4.31,15s5.6,8.3,9.57,11.46c3.96,3.16,8.7,5.63,14.22,7.41,5.52,1.78,11.61,2.67,18.27,2.67,9.77,0,17.24-1.92,22.41-5.77,5.17-3.84,7.76-9.89,7.76-18.16,0-2.64-.8-4.87-2.41-6.71-1.61-1.84-3.79-3.36-6.55-4.56-2.76-1.2-5.92-2.21-9.48-3.01-3.56-.8-7.36-1.52-11.38-2.15-4.02-.63-8.07-1.29-12.15-1.98-4.08-.69-8.01-1.55-11.81-2.58-5.17-1.38-9.82-3.07-13.96-5.08-4.14-2.01-7.61-4.5-10.43-7.49-2.82-2.98-5-6.6-6.55-10.84-1.55-4.24-2.33-9.29-2.33-15.15,0-4.47.75-8.83,2.24-13.08,1.49-4.24,3.99-8.03,7.5-11.36,3.5-3.33,8.07-5.99,13.7-8,5.63-2.01,12.58-3.01,20.86-3.01,7.7,0,14.19.72,19.48,2.15,5.28,1.44,9.94,3.3,13.96,5.6,2.41,1.38,4.54,2.07,6.38,2.07,1.26,0,2.78-.75,4.57-2.24,1.78-1.49,3.19-3.16,4.22-5h9.31v44.81Z"/>
    <path d="M967.27,446.99c-10.34,0-15.51,2.64-15.51,7.93v57.57c0,8.62-.95,16.35-2.84,23.18-1.9,6.84-4.91,12.61-9.05,17.32-4.14,4.71-9.54,8.3-16.2,10.77-6.67,2.47-14.77,3.71-24.3,3.71s-17.93-1.24-24.82-3.71c-6.89-2.47-12.56-6.06-16.98-10.77-4.42-4.71-7.64-10.48-9.65-17.32-2.01-6.83-3.02-14.56-3.02-23.18v-57.57c0-5.28-5.11-7.93-15.34-7.93v-10.17h60.33v10.17c-6.55,0-11.29.66-14.22,1.98-2.93,1.32-4.39,3.3-4.39,5.95v57.57c0,6.89.52,12.87,1.55,17.93,1.03,5.06,2.78,9.22,5.26,12.5,2.47,3.27,5.8,5.72,10,7.33,4.19,1.61,9.51,2.41,15.94,2.41s11.63-.8,15.94-2.41c4.31-1.61,7.78-4.05,10.43-7.33,2.64-3.28,4.51-7.44,5.6-12.5,1.09-5.06,1.64-11.03,1.64-17.93v-57.57c0-2.64-1.49-4.62-4.48-5.95-2.99-1.32-7.76-1.98-14.31-1.98v-10.17h48.43v10.17Z"/>
    <path d="M1048.16,436.65c7.37,0,14.1.55,20.2,1.64,6.1,1.09,11.31,3.05,15.63,5.86,4.32,2.82,7.66,6.64,10.02,11.46,2.36,4.83,3.54,10.97,3.54,18.44s-1.18,13.91-3.54,18.96c-2.36,5.06-5.7,9.11-10.02,12.15-4.32,3.05-9.53,5.2-15.63,6.46-6.1,1.27-12.84,1.9-20.21,1.9h-26.6v33.41c0,5.31,6.38,7.96,19.13,7.96v9.82h-60.84v-9.82c10.23,0,15.34-2.65,15.34-7.94v-92.19c0-5.3-5.11-7.94-15.34-7.94v-10.17h68.34ZM1021.53,451.12v48.26h23.61c9.31,0,15.97-2.13,19.99-6.4,4.02-4.27,6.03-10.55,6.03-18.86,0-7.27-2.01-12.92-6.03-16.95-4.02-4.03-10.69-6.05-19.99-6.05h-23.61Z"/>
    <path d="M1248.64,549.54c1.15,3.45,5.86,5.17,14.13,5.17v10h-63.08v-10h15.17c3.33,0,5-1.09,5-3.28,0-.34-.17-.97-.52-1.9l-6.89-18.62h-52.92l-6.38,17.24c-.23.69-.34,1.38-.34,2.07,0,2.99,2.53,4.48,7.58,4.48h10.69v10h-47.06v-10.17c4.83,0,8.39-.4,10.69-1.21,2.3-.8,3.73-2.01,4.31-3.62l43.09-113.07h24.99l41.54,112.9ZM1164.01,518.17h44.13l-21.89-60.67-22.23,60.67Z"/>
    <path d="M1334.79,446.82c-10.23,0-15.34,2.65-15.34,7.94v92.19c0,5.29,5.11,7.94,15.34,7.94v9.82h-57.22v-9.82c10.34,0,15.51-2.65,15.51-7.94v-92.19c0-5.3-5.17-7.94-15.51-7.94v-10.17h57.22v10.17Z"/>
  </g>
</svg>